<svg height="512" viewBox="0 0 512 512" width="512" xmlns="http://www.w3.org/2000/svg"><g id="flat"><path d="m24 376h464v32h-464z" fill="#d32b39"/><path d="m480 376h-448l16-120h416z" fill="#e82f3e"/><path d="m443.724 352a8 8 0 0 1 -7.92-6.943l-3.734-28a8 8 0 0 1 15.86-2.116l3.733 28a8.005 8.005 0 0 1 -7.939 9.059z" fill="#fd4a6d"/><path d="m436.257 296a8 8 0 0 1 -7.92-6.944l-1.066-8a8 8 0 1 1 15.859-2.114l1.066 8a8.006 8.006 0 0 1 -7.939 9.058z" fill="#fd4a6d"/><path d="m306.357 305.818a17.817 17.817 0 0 0 -35.452-2.545h-30.905a17.817 17.817 0 1 0 -32.253 12.727 17.818 17.818 0 1 0 30.72 17.818h33.971a17.818 17.818 0 1 0 30.72-17.818 17.734 17.734 0 0 0 3.199-10.182z" fill="#eaeae8"/><path d="m431.429 256a55.994 55.994 0 0 0 -49.669-63.7 56 56 0 0 0 -59.778-39.969 88.017 88.017 0 0 0 -147.964 0 56 56 0 0 0 -59.778 39.969 55.994 55.994 0 0 0 -49.669 63.7z" fill="#fbb540"/><g fill="#d18d28"><path d="m192 224a8 8 0 0 1 -8-8 8 8 0 0 0 -16 0 8 8 0 0 1 -16 0 24 24 0 0 1 48 0 8 8 0 0 1 -8 8z"/><path d="m368 232a8 8 0 0 1 -8-8 8 8 0 0 0 -16 0 8 8 0 0 1 -16 0 24 24 0 0 1 48 0 8 8 0 0 1 -8 8z"/><path d="m240 168.239a8 8 0 0 1 -8-7.881 24.026 24.026 0 0 1 23.644-24.358 8 8 0 1 1 .238 16 8.009 8.009 0 0 0 -7.882 8.12 8 8 0 0 1 -7.88 8.118z"/><circle cx="256" cy="224" r="8"/><circle cx="296" cy="176" r="8"/></g></g></svg>