<svg height="512" viewBox="0 0 512 512" width="512" xmlns="http://www.w3.org/2000/svg"><g id="filled_outline" data-name="filled outline"><circle cx="304" cy="108.845" fill="#27c5a7" r="24"/><path d="m368 452.845h-30.46a25.539 25.539 0 0 1 -25.54-25.539 25.539 25.539 0 0 1 12.4-21.9l35.6-21.406 24 36.845z" fill="#015078"/><path d="m24 348.845 28.1-5.619a53.514 53.514 0 0 0 21.611-9.663l22.289-16.718 7.436-4.845 8.564 28.845-17.731 13.3a53.51 53.51 0 0 1 -32.105 10.7 53.508 53.508 0 0 1 -37.836-15.672z" fill="#d18d28"/><path d="m112.252 281.759a76.868 76.868 0 0 1 19.8-21.949 127.341 127.341 0 0 0 32.784-36.351l4.613-7.688a46.005 46.005 0 0 0 6.551-23.671v-35.255l24-24 28 7 20-7 16 24-30 24 6 40 1.928 4.5a46 46 0 0 1 1.1 33.431l-.025.07 30.946 15.054a16 16 0 0 1 8.179 9.328l13.872 41.617-24 8-16-32-32-8-48 24-16 24 11.848 23.7a16 16 0 0 1 -1 16.03l-10.848 16.27-8 56h-24v-72l-12.67-12.669a50 50 0 0 1 -13.964-27.136l-.173-1.04a85.8 85.8 0 0 1 11.059-58.241z" fill="#ea9d2d"/><path d="m193.62 187.97a15.651 15.651 0 0 1 -12.31 6.28l-4.89.08-.37-37.53 9.35-9.35 10.17 25.06a15.763 15.763 0 0 1 -1.95 15.46z" fill="#ea9d2d"/><path d="m296 132.845 24-8 24 80 48 32-24 24-56-40-8-56-8-8z" fill="#fdc9a6"/><path d="m486 372.845-10.268-73.608a210.024 210.024 0 0 0 -12.163-43.468l-.026-.065a30 30 0 0 0 -27.854-18.859h-43.689l-24 24 24 16v56z" fill="#02a437"/><path d="m352.655 377.618 18.012 43.227h53.333l-8-12.845 18.129 7.277a50 50 0 0 0 28.522 2.61 31.6 31.6 0 0 0 16.093-8.631q.493-.493.963-1.007a31.542 31.542 0 0 0 7.663-25.768l-1.37-9.636-89.089-39.038a33.6 33.6 0 0 0 -37 7.126 33.6 33.6 0 0 0 -7.256 36.685z" fill="#026ca2"/><path d="m456 284.845v-32a16 16 0 0 0 -16-16 16 16 0 0 0 -16 16v32z" fill="#029532"/><path d="m424 284.845v40h-78a18 18 0 0 0 -18 18v14h104a24 24 0 0 0 24-24v-48z" fill="#fdc9a6"/><path d="m392 168.332h32l16 24v4.687a27.313 27.313 0 0 1 -8 19.313v20.513h-32v-20.513a27.313 27.313 0 0 1 -8-19.313z" fill="#fdc9a6"/><path d="m392 168.332-4.924-14.773a15.736 15.736 0 0 1 3.8-16.1 15.739 15.739 0 0 1 19.858-1.966l13.266 8.839h8.929a20.911 20.911 0 0 1 19.837 14.3 20.911 20.911 0 0 1 -2.439 18.212l-10.327 15.488-16-24z" fill="#55300b"/><circle cx="212" cy="156.845" fill="#c38325" r="7"/><path d="m193.62 187.97a15.651 15.651 0 0 1 -12.31 6.28l-4.89.08-.37-37.53 9.35-9.35 10.17 25.06a15.763 15.763 0 0 1 -1.95 15.46z" fill="#c38325"/><g fill="#6ee7f5"><path d="m46.245 406.851a54.784 54.784 0 0 1 -15.883-2.351 8 8 0 1 1 4.638-15.311 38.974 38.974 0 0 0 31.178-3.806l5.73-3.411a8 8 0 1 1 8.184 13.748l-5.729 3.411a55.006 55.006 0 0 1 -28.118 7.72z"/><path d="m149.766 161.846a8 8 0 0 1 -8-8 51.871 51.871 0 0 1 13.334-34.754l7.133-7.925a8 8 0 1 1 11.892 10.7l-7.125 7.928a35.894 35.894 0 0 0 -9.229 24.051 8 8 0 0 1 -8.005 8z"/><path d="m360.007 87.006a7.993 7.993 0 0 1 -6.677-3.584l-.642-.969a23.267 23.267 0 0 0 -19.45-10.453 8 8 0 0 1 0-16 39.227 39.227 0 0 1 32.792 17.621l.64.967a8 8 0 0 1 -6.663 12.418z"/></g><path d="m370.667 420.845-10.667 16v16h64v-32z" fill="#cbcbcb"/><path d="m416 408 8 12.85h-9.82l-28.69-40.2a8 8 0 0 1 13.02-9.3l29.63 41.52z" fill="#015078"/><path d="m328 108.85c0 .14 0 .28-.01.42a1.945 1.945 0 0 1 -.22.08 145.433 145.433 0 0 1 -46.16 7.5h-.24a24.043 24.043 0 0 1 0-16h.24a129.766 129.766 0 0 0 41.11-6.68 1.655 1.655 0 0 1 .21-.06 23.821 23.821 0 0 1 5.07 14.74z" fill="#2ad3b3"/><path d="m392 236.845v40l-24-16z" fill="#029532"/><path d="m99.069 360.543.473-.355a57.968 57.968 0 0 0 10.131 13.645l10.327 10.326v68.687a8 8 0 0 0 8 8h24a8 8 0 0 0 7.919-6.868l7.744-54.2 9.843-14.764a24.051 24.051 0 0 0 1.5-24.046l-9.772-19.542 12.247-18.37 43.453-21.727 25.559 6.391 14.355 28.709a8.005 8.005 0 0 0 9.685 4.012l24-8a8 8 0 0 0 5.059-10.121l-13.875-41.62a24.139 24.139 0 0 0 -12.269-13.993l-24.948-12.138a53.833 53.833 0 0 0 -3.216-32.376l-1.522-3.552-5.162-34.426 26.4-21.122a8 8 0 0 0 1.658-10.685l-16-24a8 8 0 0 0 -9.3-3.113l-17.74 6.209-25.677-6.419a8 8 0 0 0 -7.6 2.1l-24 24a8 8 0 0 0 -2.341 5.661v35.254a38.013 38.013 0 0 1 -5.415 19.551l-4.613 7.688a118.75 118.75 0 0 1 -30.725 34.067 84.485 84.485 0 0 0 -21.855 24.233 93.791 93.791 0 0 0 -11.854 31.6 7.977 7.977 0 0 0 -2.338 1.2l-22.291 16.725a45.77 45.77 0 0 1 -18.379 8.217l-28.099 5.619a8 8 0 0 0 -4.084 13.506l.323.322a61.107 61.107 0 0 0 43.494 18.017 61.883 61.883 0 0 0 36.905-12.302zm84.931-195.043 4.177 10.079a7.708 7.708 0 0 1 -4.177 10.079zm-64.888 120.375a68.571 68.571 0 0 1 17.735-19.665 134.693 134.693 0 0 0 34.845-38.635l4.613-7.687a54.018 54.018 0 0 0 6.742-17.725 23.545 23.545 0 0 0 16.97-9.393 23.822 23.822 0 0 0 2.941-23.319l-8.277-19.973 7.773-7.773 23.606 5.9a7.991 7.991 0 0 0 4.583-.21l14.143-4.95 8.489 12.735-24.275 19.42a8 8 0 0 0 -2.914 7.433l6 40a7.983 7.983 0 0 0 .559 1.965l1.928 4.5a37.9 37.9 0 0 1 .906 27.615c0 .009-.031.088-.033.1a8 8 0 0 0 4.052 9.832l30.951 15.055a8.041 8.041 0 0 1 4.09 4.664l11.342 34.026-9.829 3.276-12.9-25.794a8 8 0 0 0 -5.215-4.183l-32-8a8 8 0 0 0 -5.518.605l-48 24a8 8 0 0 0 -3.078 2.718l-16 24a8 8 0 0 0 -.5 8.016l11.847 23.7a8.015 8.015 0 0 1 -.5 8.015l-10.849 16.274a8 8 0 0 0 -1.263 3.306l-7.019 49.132h-9.057v-64a8 8 0 0 0 -2.343-5.658l-12.67-12.668a41.781 41.781 0 0 1 -11.73-22.8l-.173-1.036a77.862 77.862 0 0 1 10.028-52.818zm-65.445 65.195a61.868 61.868 0 0 0 24.842-11.106l13.612-10.209a93.487 93.487 0 0 0 1.179 11.565l.173 1.035c.116.7.248 1.4.39 2.092l-4.4 3.3a45.617 45.617 0 0 1 -45.6 5.287z"/><path d="m483.655 298.132c-.009-.07-.02-.14-.032-.21a218.606 218.606 0 0 0 -12.652-45.19 37.89 37.89 0 0 0 -16.222-18.8 23.875 23.875 0 0 0 -14.749-5.086v-9.438a35.046 35.046 0 0 0 8-22.389v-2.265l8.984-13.475a28.911 28.911 0 0 0 -24.055-44.947h-6.507l-11.25-7.5a23.737 23.737 0 0 0 -35.686 27.257l4.514 13.541v27.389a35.046 35.046 0 0 0 8 22.389v7.823l-41.165-27.444-21.442-71.474a32 32 0 1 0 -41.393 8.23v20.3a8 8 0 0 0 2.343 5.657l6.115 6.114 7.623 53.361a7.994 7.994 0 0 0 3.269 5.377l56 40c.028.02.059.033.087.052s.082.066.125.1l20.438 13.623v35.719h-38a26.029 26.029 0 0 0 -26 26v14a8 8 0 0 0 8 8h14.061a41.382 41.382 0 0 0 3.21 15.849l.952 2.287-25.94 15.564a33.54 33.54 0 0 0 17.257 62.3h86.46a8 8 0 0 0 8-8v-29.815a57.859 57.859 0 0 0 32.235 2.7 39.475 39.475 0 0 0 20.165-10.814c.413-.412.815-.833 1.212-1.266a39.352 39.352 0 0 0 9.683-32.3zm-19.655 34.714v-50.183c1.536 5.872 2.824 11.807 3.824 17.786l8.253 59.168-18.093-8.129a31.817 31.817 0 0 0 6.016-18.642zm-18.285-85.588a7.974 7.974 0 0 1 2.285 5.588v24h-16v-24a8.012 8.012 0 0 1 6.349-7.827 21.9 21.9 0 0 1 7.366 2.239zm-40.058-36.583a19.185 19.185 0 0 1 -5.657-13.656v-20.687h19.719l12.281 18.422v2.265a19.185 19.185 0 0 1 -5.657 13.656 8 8 0 0 0 -2.343 5.657v12.514h-16v-12.514a8 8 0 0 0 -2.343-5.657zm-9.122-67.564a7.76 7.76 0 0 1 9.762-.965l13.266 8.842a8 8 0 0 0 4.437 1.344h8.929a12.91 12.91 0 0 1 10.742 20.068l-3.671 5.51-9.344-14.01a8 8 0 0 0 -6.656-3.568h-26.234l-3.1-9.3a7.7 7.7 0 0 1 1.869-7.921zm-92.535-50.265a15.922 15.922 0 0 1 10.32 3.793 129.557 129.557 0 0 1 -23.962 3.89 15.989 15.989 0 0 1 13.642-7.683zm-13.99 23.754a145.553 145.553 0 0 0 29.714-4.822 15.783 15.783 0 0 1 -2.1 5.434c-.051.016-.1.026-.153.043l-19.371 6.458a15.948 15.948 0 0 1 -8.09-7.113zm77.125 133.8-47.7-34.071-7.517-52.611a8 8 0 0 0 -2.262-4.526l-5.656-5.66v-14.921l10.707-3.568 21.63 72.1a8.007 8.007 0 0 0 3.225 4.357l39.881 26.587zm13.422 9.207 14.757-14.757h22.062a23.885 23.885 0 0 0 -1.376 8v64h-16v-40a8 8 0 0 0 -3.562-6.657zm-44.557 89.239v-6a10.011 10.011 0 0 1 10-10h78a8 8 0 0 0 8-8v-32h16v40a16.019 16.019 0 0 1 -16 16zm17.344 83.562a8 8 0 0 0 -1.344 4.438v8h-14.46a17.54 17.54 0 0 1 -9.025-32.58l23.928-14.356 9.192 22.061zm62.656 12.438h-48v-5.578l6.948-10.422h41.052zm57.812-42c-.235.256-.475.507-.726.758a23.537 23.537 0 0 1 -12.018 6.446 41.887 41.887 0 0 1 -23.959-2.192l-17.591-7.062-21.006-29.438a8 8 0 1 0 -13.024 9.292l22.976 32.2h-32.464l-15.96-38.305a25.453 25.453 0 0 1 -1.972-9.695h73.932a31.81 31.81 0 0 0 11.71-2.229l34.99 15.72.75 5.27a23.409 23.409 0 0 1 -5.638 19.231z"/><circle cx="212" cy="156.845" r="7"/><path d="m74.363 399.131 5.729-3.411a8 8 0 1 0 -8.184-13.748l-5.73 3.411a38.974 38.974 0 0 1 -31.178 3.806 8 8 0 1 0 -4.638 15.311 55 55 0 0 0 44-5.371z"/><path d="m162.235 111.167-7.133 7.925a51.871 51.871 0 0 0 -13.336 34.754 8 8 0 0 0 16 0 35.894 35.894 0 0 1 9.234-24.051l7.132-7.925a8 8 0 1 0 -11.892-10.7z"/><path d="m333.238 56a8 8 0 0 0 0 16 23.267 23.267 0 0 1 19.45 10.453l.642.969a8 8 0 1 0 13.34-8.834l-.64-.967a39.227 39.227 0 0 0 -32.792-17.621z"/></g></svg>